<svg id="Layer_1" data-name="Layer 1" xmlns="http://www.w3.org/2000/svg" viewBox="0 0 14 14"><defs><style>.cls-1{fill:none;stroke:#0267c1;stroke-linecap:round;stroke-linejoin:round;}</style></defs><path class="cls-1" d="M400.73,394.28l4.26,1.83c1.23.52,1.23,1.39,0,1.91l-4.26,1.83a2.54,2.54,0,0,1-1.76,0L394.71,398c-1.23-.52-1.23-1.39,0-1.91l4.26-1.83A2.54,2.54,0,0,1,400.73,394.28Z" transform="translate(-393 -393.63)"/><path class="cls-1" d="M393.5,399.92a1.76,1.76,0,0,0,1,1.49l4.9,2.11a1.49,1.49,0,0,0,1.17,0l4.91-2.11a1.78,1.78,0,0,0,1-1.49" transform="translate(-393 -393.63)"/><path class="cls-1" d="M393.5,403.4a1.64,1.64,0,0,0,1,1.5l4.9,2.11a1.49,1.49,0,0,0,1.17,0l4.91-2.11a1.64,1.64,0,0,0,1-1.5" transform="translate(-393 -393.63)"/></svg>