<svg id="Layer_1" data-name="Layer 1" xmlns="http://www.w3.org/2000/svg" viewBox="0 0 25 25"><defs><style>.cls-1{fill:#f59300;}</style></defs><path class="cls-1" d="M391.07,415a2.6,2.6,0,0,1,2.68-2.5h1.79a2.59,2.59,0,0,1,2.67,2.5v4.17h3.58V415a2.59,2.59,0,0,1,2.67-2.5h1.79a2.6,2.6,0,0,1,2.68,2.5v4a.82.82,0,0,0,.49.74l1.6.75a2.48,2.48,0,0,1,1.48,2.24V435a2.6,2.6,0,0,1-2.68,2.5h-5.36a2.59,2.59,0,0,1-2.67-2.5h0v-5a.8.8,0,0,1,.26-.59l1.52-1.42v-1.32a.87.87,0,0,0-.89-.84h-5.36a.87.87,0,0,0-.89.84V428l1.52,1.42a.8.8,0,0,1,.26.59v5a2.59,2.59,0,0,1-2.67,2.5h-5.36a2.6,2.6,0,0,1-2.68-2.5h0V422.7a2.48,2.48,0,0,1,1.48-2.24l1.6-.75a.82.82,0,0,0,.49-.74Zm2.68-.83a.86.86,0,0,0-.89.83v.83h3.57V415a.86.86,0,0,0-.89-.83Zm2.68,3.33h-3.57V419a2.51,2.51,0,0,1-1.48,2.24l-1.6.74a.83.83,0,0,0-.49.75v9.8h7.14v-2.16l-1.53-1.42a.83.83,0,0,1-.26-.59v-1.66a2.6,2.6,0,0,1,2.68-2.5h5.36a2.6,2.6,0,0,1,2.68,2.5v1.66a.83.83,0,0,1-.26.59l-1.53,1.42v2.16h7.14v-9.8a.83.83,0,0,0-.49-.75l-1.6-.74a2.51,2.51,0,0,1-1.48-2.24V417.5h-3.57V420a.86.86,0,0,1-.89.83h-5.36a.86.86,0,0,1-.89-.83Zm7.14-1.67h3.57V415a.86.86,0,0,0-.89-.83h-1.79a.86.86,0,0,0-.89.83Zm7.14,18.34h-7.14V435a.86.86,0,0,0,.89.83h5.36a.86.86,0,0,0,.89-.83Zm-14.28,0h-7.14V435a.86.86,0,0,0,.89.83h5.36a.86.86,0,0,0,.89-.83Z" transform="translate(-387.5 -412.5)"/></svg>