<svg id="Layer_1" data-name="Layer 1" xmlns="http://www.w3.org/2000/svg" viewBox="0 0 28.45 33.73"><defs><style>.cls-1{fill:none;stroke:#357ec7;stroke-linecap:round;stroke-linejoin:round;stroke-width:2px;}</style></defs><path class="cls-1" d="M319.12,415H307.67a11.6,11.6,0,0,1,9.81-11.55m8.19-11.78a6.55,6.55,0,1,1-6.55-6.67A6.6,6.6,0,0,1,325.67,391.67Z" transform="translate(-306.67 -384)"/><path class="cls-1" d="M326,402.73c.2-.58.29-.87.43-1a.41.41,0,0,1,.4,0c.14.08.24.37.43,1l1.27,3.83a.94.94,0,0,0,.13.31.48.48,0,0,0,.16.12,1.08,1.08,0,0,0,.32,0l3.87.08c.58,0,.88,0,1,.13a.45.45,0,0,1,.12.4c0,.16-.26.35-.72.72l-3.09,2.45a1.07,1.07,0,0,0-.24.23.6.6,0,0,0-.06.19,1.19,1.19,0,0,0,.07.34l1.12,3.88c.17.58.25.88.18,1a.42.42,0,0,1-.31.24c-.16,0-.4-.15-.88-.5L327,413.9c-.14-.1-.2-.15-.28-.16a.34.34,0,0,0-.2,0,.76.76,0,0,0-.28.16l-3.17,2.32c-.48.35-.72.53-.88.5a.42.42,0,0,1-.32-.24c-.07-.15,0-.45.18-1l1.12-3.88a1.19,1.19,0,0,0,.07-.34.6.6,0,0,0-.06-.19.88.88,0,0,0-.24-.23l-3.08-2.45c-.47-.37-.7-.56-.73-.72a.45.45,0,0,1,.12-.4c.12-.11.41-.12,1-.13l3.87-.08a1,1,0,0,0,.32,0,.48.48,0,0,0,.16-.12.94.94,0,0,0,.13-.31Z" transform="translate(-306.67 -384)"/></svg>