<svg id="_2" data-name="2" xmlns="http://www.w3.org/2000/svg" viewBox="0 0 30 27"><defs><style>.cls-1{fill:#f59300;}</style></defs><path class="cls-1" d="M415,390.82a2,2,0,0,0-2-1.91H411.7s-.24-1.05-1-1.05h-2l-1-.33c-.39.27.13,1,.13,1s-.72.58-.72,2.83v2.3c0,2.08-2.27,3.28-3.31,1.81s-3.63-8-3.63-8a1.69,1.69,0,0,0-1.53-1,1.66,1.66,0,0,0-1.52,1l-1.4,3.16a.67.67,0,0,1-.57.4.69.69,0,0,1-.62-.34L392.92,388a1.66,1.66,0,0,0-3,.21l-3.14,7.68a4.93,4.93,0,0,0-1.8,3.84v4c0,.79,1.31.93,1.31.13v-3.44s.92-.66.92,0v5c0,.93-1.05,1.85-1.05,2.38s1.83,5.56,1.83,5.56h1.84s-1.18-4.23-1.18-4.76,1.14-1.79,1.69-2.72c-.06.86-.84,1.77-.79,2.25S392,413.5,392,413.5l1.83-.19s-1.61-4.09-1.67-4.62,1.52-2.71,1.62-3.5c.21-1.75.12-1.07.12-1.07a1.14,1.14,0,0,1,.53-1.18h5.78c1.18,0,1,.92.91,1.45s-1.15,3.44-1.15,3.44l.13,5.56h1.84s.13-4.9.13-5.29a6.76,6.76,0,0,1,.56-1.32l.09,1.05.79,5.56h1.83s-.52-4.9-.52-5.29.3-4.18.45-5.9c6.17.73,6.18-3.48,6.18-8.19,0-1.72.26-1.72.85-1.72a6.69,6.69,0,0,0,2-.08.55.55,0,0,0,.4-.66S415.06,391.49,415,390.82Z" transform="translate(-385 -386.5)"/></svg>