<svg id="Layer_1" data-name="Layer 1" xmlns="http://www.w3.org/2000/svg" viewBox="0 0 35 23"><defs><style>.cls-1{fill:#f59300;}</style></defs><path class="cls-1" d="M407.11,401a1.61,1.61,0,0,0-1.54,1.1h-4.48v2.19h4.65l.34,1.09h-3.89a5.92,5.92,0,0,0-4.82,2.19h-3.69a8.15,8.15,0,0,0-4.07-1.09,11.24,11.24,0,0,0-4.31.92l1,2a9,9,0,0,1,3.35-.72,6.41,6.41,0,0,1,2.32.51l-.95,2a6.48,6.48,0,0,0-1.92-.31,6.57,6.57,0,1,0,6.46,7.66h3.8a2.22,2.22,0,0,0,2-1.23h0l1.2-2.43a12,12,0,0,0,4.34-3.66c.29-.38.53-.72.75-1.06l2.33,7.6,2.12-.62-1.23-4c.06,0,.11,0,.17,0a4.38,4.38,0,1,1-4.38,4.38,4.32,4.32,0,0,1,1.2-3l-.68-2.3a6.56,6.56,0,1,0,3.86-1.26,6.11,6.11,0,0,0-.86.07l-2-6.64h1.77V401Zm-4.92,6.57h4.37a17.9,17.9,0,0,1-1.5,2.29,9.8,9.8,0,0,1-3.8,3.26l-.44.13-.17.41-1.33,2.67H389.06v2.19h4.21a4.38,4.38,0,1,1-.45-3.28h2.43a6.66,6.66,0,0,0-2.33-3.12l1.2-2.36h4.27l.35-.48A4.1,4.1,0,0,1,402.19,407.57Z" transform="translate(-382.5 -401)"/></svg>