<svg id="Layer_1" data-name="Layer 1" xmlns="http://www.w3.org/2000/svg" viewBox="0 0 15 25"><defs><style>.cls-1{fill:#f5b700;}</style></defs><g id="Layer_20" data-name="Layer 20"><path class="cls-1" d="M399.76,397.25v0h0a14.86,14.86,0,0,0-2.28-8,.38.38,0,0,0-.65,0,15,15,0,0,0-2.28,8h0v1.41a18,18,0,0,0-.8,5.4v9.61a.41.41,0,0,0,.4.43h6.05a.41.41,0,0,0,.4-.43V404a18.3,18.3,0,0,0-.8-5.4v-1.33Zm-2.6-7a14.27,14.27,0,0,1,1.81,6.52h-3.63A14.16,14.16,0,0,1,397.16,390.22Zm2.6,22.94h-5.25V404a16.71,16.71,0,0,1,.8-5.2s0-.08,0-.12V397.6H399v1.06a.3.3,0,0,0,0,.16,17.76,17.76,0,0,1,.8,5.2v9.14Z" transform="translate(-393.75 -389.06)"/><path class="cls-1" d="M395.92,403.78a.42.42,0,0,0-.39.43v7.39a.4.4,0,1,0,.79,0v-7.39A.42.42,0,0,0,395.92,403.78Z" transform="translate(-393.75 -389.06)"/><path class="cls-1" d="M408.32,403.59v-1.53a2.36,2.36,0,1,0-4.71,0v1.53a.83.83,0,0,0-.4.74v9.26a.41.41,0,0,0,.4.43h4.74a.41.41,0,0,0,.4-.43v-9.26A1,1,0,0,0,408.32,403.59Zm-3.95-1.53a1.56,1.56,0,1,1,3.11,0v1.41h-3.11v-1.41Zm3.55,11.1H404v-8.83h3.95Z" transform="translate(-393.75 -389.06)"/><path class="cls-1" d="M405.27,412a.42.42,0,0,0,.4-.43v-5.71a.4.4,0,1,0-.8,0v5.71A.42.42,0,0,0,405.27,412Z" transform="translate(-393.75 -389.06)"/></g></svg>