<svg id="Layer_1" data-name="Layer 1" xmlns="http://www.w3.org/2000/svg" viewBox="0 0 28.48 33.67"><defs><style>.cls-1{fill:none;stroke:#357ec7;stroke-linecap:round;stroke-linejoin:round;stroke-width:2px;}.cls-2{fill:#357ec7;}</style></defs><path class="cls-1" d="M319.12,415H307.67a11.6,11.6,0,0,1,9.81-11.55m8.19-11.78a6.55,6.55,0,1,1-6.55-6.67A6.6,6.6,0,0,1,325.67,391.67Z" transform="translate(-306.67 -384)"/><path class="cls-2" d="M334,404.28h-1.78v-.53a1.13,1.13,0,0,0-1.18-1.08h-4.73a1.13,1.13,0,0,0-1.18,1.08v.53h-1.77a1.13,1.13,0,0,0-1.18,1.07V416.6a1.13,1.13,0,0,0,1.18,1.07H334a1.13,1.13,0,0,0,1.18-1.07V405.35A1.13,1.13,0,0,0,334,404.28Zm-7.69-.53H331v2.14h-4.73ZM334,416.6H323.33V405.35h1.77V407h7.09v-1.61H334Z" transform="translate(-306.67 -384)"/></svg>