<svg id="Layer_1" data-name="Layer 1" xmlns="http://www.w3.org/2000/svg" viewBox="0 0 25 20"><defs><style>.cls-1{fill:#6b2699;}</style></defs><path class="cls-1" d="M393.18,400.91h-4.54a1,1,0,0,0-1.14.91v7.27a1,1,0,0,0,1.14.91h4.54a1,1,0,0,0,1.14-.91v-7.27A1,1,0,0,0,393.18,400.91Zm-1.13,7.27h-2.28v-5.45h2.28Zm19.31-10.91h-4.54a1,1,0,0,0-1.14.91v10.91a1,1,0,0,0,1.14.91h4.54a1,1,0,0,0,1.14-.91V398.18A1,1,0,0,0,411.36,397.27Zm-1.13,10.91H408v-9.09h2.28Zm-8-18.18h-4.54a1,1,0,0,0-1.14.91v18.18a1,1,0,0,0,1.14.91h4.54a1,1,0,0,0,1.14-.91V390.91A1,1,0,0,0,402.27,390Zm-1.13,18.18h-2.28V391.82h2.28Z" transform="translate(-387.5 -390)"/></svg>