<svg id="Layer_1" data-name="Layer 1" xmlns="http://www.w3.org/2000/svg" viewBox="0 0 30 27"><defs><style>.cls-1{fill:#f59300;}</style></defs><path class="cls-1" d="M415,390.54a1.68,1.68,0,0,0-.45-1.15l-.71-.76A2.53,2.53,0,0,0,415,387a.43.43,0,0,0-.42-.51h-6.25a6.7,6.7,0,0,0-6.66,6.75h-8.33a4.93,4.93,0,0,0-3.75,1.75v-.06a4.61,4.61,0,0,0-4.58,4.64v2.95a.83.83,0,0,0,.83.84h.83a.84.84,0,0,0,.84-.84v-2.95a2.05,2.05,0,0,1,.87-1.67c0,.13,0,.26,0,.4a5.09,5.09,0,0,0,1.59,3.69l-1.34,3.62a3.33,3.33,0,0,0-.11,2l1.29,5.24a.83.83,0,0,0,.81.64H394a.84.84,0,0,0,.81-1.05l-1.37-5.55,1.24-3.35,7,1.17v7.94a.85.85,0,0,0,.84.84h3.33a.84.84,0,0,0,.83-.84v-9.38a5.91,5.91,0,0,0,1.67-4.12s0,0,0,0v-5.4l.84.37,1,2a1.65,1.65,0,0,0,2.11.81l1.7-.68a1.68,1.68,0,0,0,1-1.57v-4.1Zm-3.33,1a.85.85,0,1,1,.83-.84A.84.84,0,0,1,411.66,391.56Z" transform="translate(-385 -386.5)"/></svg>