<svg id="Layer_1" data-name="Layer 1" xmlns="http://www.w3.org/2000/svg" viewBox="0 0 17 17"><defs><style>.cls-1,.cls-2,.cls-3,.cls-4{fill:none;stroke-width:2px;}.cls-1,.cls-2{stroke:#706f6f;}.cls-1,.cls-4{stroke-miterlimit:133.33;}.cls-2,.cls-3{stroke-linecap:round;stroke-linejoin:round;}.cls-3,.cls-4{stroke:#f59300;}</style></defs><ellipse class="cls-1" cx="4.65" cy="3.25" rx="2.31" ry="2.25"/><path class="cls-2" d="M398.46,400H395.3a2.28,2.28,0,0,0-2.29,2l-.5,3.84A1.52,1.52,0,0,0,394,407.5h3.65" transform="translate(-391.5 -391.5)"/><path class="cls-3" d="M407.49,405.81,407,402a2.28,2.28,0,0,0-2.29-2H403a2.28,2.28,0,0,0-2.29,2l-.49,3.84a1.51,1.51,0,0,0,1.53,1.69H406A1.52,1.52,0,0,0,407.49,405.81Z" transform="translate(-391.5 -391.5)"/><ellipse class="cls-4" cx="12.35" cy="3.25" rx="2.31" ry="2.25"/></svg>