<svg id="Layer_1" data-name="Layer 1" xmlns="http://www.w3.org/2000/svg" viewBox="0 0 10 10"><defs><style>.cls-1{fill:#1f9d0a;isolation:isolate;}.cls-2{fill:#fff;}</style></defs><path class="cls-1" d="M405,400a5,5,0,1,1-5-5A5,5,0,0,1,405,400Z" transform="translate(-395 -395)"/><path class="cls-2" d="M400.62,397.5a.62.62,0,0,0-.62-.63.63.63,0,0,0-.63.63v1.87H397.5a.63.63,0,0,0-.63.63.62.62,0,0,0,.63.62h1.87v1.88a.62.62,0,0,0,.63.62.61.61,0,0,0,.62-.62v-1.88h1.88a.61.61,0,0,0,.62-.62.62.62,0,0,0-.62-.63h-1.88Z" transform="translate(-395 -395)"/></svg>