<svg id="Layer_1" data-name="Layer 1" xmlns="http://www.w3.org/2000/svg" viewBox="0 0 25 25"><defs><style>.cls-1{fill:#f59300;}</style></defs><path class="cls-1" d="M409.09,393.06h-2.27v-2.78h2.27a1.42,1.42,0,0,0,0-2.78h-6.82a1.42,1.42,0,0,0,0,2.78h2.28v2.78h-9.1v-2.78h2.28a1.42,1.42,0,0,0,0-2.78h-6.82a1.42,1.42,0,0,0,0,2.78h2.27v2.78h-2.27c-1.88,0-3.41,1.86-3.41,4.16s1.53,4.17,3.41,4.17h2.39a7.51,7.51,0,0,0,1.12,2.9c-2.69.61-4.64,3.48-4.65,6.82a1.16,1.16,0,1,0,2.28,0c0-2.3,1.52-4.17,3.4-4.17h3.41v2.78a1.16,1.16,0,1,0,2.28,0v-2.78h3.41c1.88,0,3.4,1.87,3.4,4.17a1.16,1.16,0,1,0,2.28,0c0-3.34-2-6.21-4.65-6.82a7.51,7.51,0,0,0,1.12-2.9h2.39c1.88,0,3.41-1.87,3.41-4.17S411,393.06,409.09,393.06Zm0,5.55h-3.41a1.27,1.27,0,0,0-1.13,1.39c0,2.3-1.53,4.17-3.41,4.17h-2.28c-1.88,0-3.41-1.87-3.41-4.17a1.27,1.27,0,0,0-1.13-1.39h-3.41a1.42,1.42,0,0,1,0-2.78h18.18a1.42,1.42,0,0,1,0,2.78ZM402.27,400a2.32,2.32,0,1,1-4.54,0,3.16,3.16,0,0,1,.11-.81,1.07,1.07,0,0,0,1.5.71,1.53,1.53,0,0,0,.58-1.83,1.26,1.26,0,0,0-.58-.71,1.86,1.86,0,0,1,.66-.14A2.56,2.56,0,0,1,402.27,400Z" transform="translate(-387.5 -387.5)"/></svg>