<svg id="Layer_1" data-name="Layer 1" xmlns="http://www.w3.org/2000/svg" viewBox="0 0 25 25"><defs><style>.cls-1{fill:#f5b700;}</style></defs><path class="cls-1" d="M393.42,409.28l4.23-5.47,1.93,2.64-3.72,5.05c-1.43,1.94-4.08-.1-2.44-2.22Zm4.94-12.45c.4-1.41.22-2.6-1.3-4.38l-3.69-4.75c-.53-.66-1.77.31-1.25,1.11l3,3.88c.56.73-.48,1.69-1.06.94l-3.06-4c-.57-.7-1.75.22-1.15,1,.86,1.11,2.2,2.91,3.06,4,.6.65-.31,1.61-.9.8l-3-4a.81.81,0,0,0-1.37.41c-.2.64.31,1.11.65,1.59l3.39,4.67c1.06,1.3,2.23,2.07,3.6,1.63a3.06,3.06,0,0,0,.74-.38l9.11,12.54a1.38,1.38,0,0,0,2.05.2l.14-.12a1.82,1.82,0,0,0,.21-2.46l-9.65-11.82a2.74,2.74,0,0,0,.56-.89Zm2.58,2.73,1.5-1.94c-1.93-5.1,5.22-11.9,8.68-8.77,4.21,3.8-2.05,13-6.44,10.69L402.9,402l-2-2.39Z" transform="translate(-387.51 -387.48)"/></svg>