<svg id="Capa_1" data-name="Capa 1" xmlns="http://www.w3.org/2000/svg" viewBox="0 0 25 18"><defs><style>.cls-1{fill:#f59300;}</style></defs><path class="cls-1" d="M404.05,395h6.8a.47.47,0,0,0,.47-.46v-1.25a.47.47,0,0,0-.47-.46h-7.62a7,7,0,0,1,.36.78A11.92,11.92,0,0,1,404.05,395Z" transform="translate(-387.5 -391)"/><path class="cls-1" d="M412.5,397.33a.47.47,0,0,0-.47-.46h-7.59a21.32,21.32,0,0,1,.2,2.17H412a.46.46,0,0,0,.47-.46v-1.25Z" transform="translate(-387.5 -391)"/><path class="cls-1" d="M412.5,402.67v-1.25A.46.46,0,0,0,412,401h-7.39a21.32,21.32,0,0,1-.2,2.17H412A.47.47,0,0,0,412.5,402.67Z" transform="translate(-387.5 -391)"/><path class="cls-1" d="M411.32,406.75V405.5a.47.47,0,0,0-.47-.46h-6.8a11.92,11.92,0,0,1-.46,1.39,7,7,0,0,1-.36.78h7.62A.47.47,0,0,0,411.32,406.75Z" transform="translate(-387.5 -391)"/><path class="cls-1" d="M399.88,409a3.08,3.08,0,0,0,2.58-1.79,9.19,9.19,0,0,0,.89-2.17,15.31,15.31,0,0,0,.41-1.91c.1-.7.17-1.43.21-2.17s0-1.28,0-1.92-.11-1.47-.21-2.17a15.31,15.31,0,0,0-.41-1.91,9.19,9.19,0,0,0-.89-2.17,3.08,3.08,0,0,0-2.58-1.79c-5.46,0-12.38,4-12.38,9S394.42,409,399.88,409Z" transform="translate(-387.5 -391)"/></svg>