<svg id="Layer_1" data-name="Layer 1" xmlns="http://www.w3.org/2000/svg" viewBox="0 0 28.23 32.87"><defs><style>.cls-1{fill:none;stroke:#357ec7;stroke-linecap:round;stroke-linejoin:round;stroke-width:2px;}.cls-2{fill:#0267c1;fill-rule:evenodd;}</style></defs><path class="cls-1" d="M319.12,415H307.67a11.6,11.6,0,0,1,9.81-11.55m8.19-11.78a6.55,6.55,0,1,1-6.55-6.67A6.6,6.6,0,0,1,325.67,391.67Z" transform="translate(-306.67 -384)"/><path class="cls-2" d="M328.23,407a1.14,1.14,0,0,1,1.4,0l5,4.13a.74.74,0,0,1,.12,1l-.12.11a1.17,1.17,0,0,1-1.42,0l-4.26-3.6-4.26,3.53a1.14,1.14,0,0,1-1.4,0,.73.73,0,0,1-.12-1.05l.12-.12Z" transform="translate(-306.67 -384)"/><path class="cls-2" d="M328.23,411.34a1.14,1.14,0,0,1,1.4,0l5,4.12a.75.75,0,0,1,.12,1.06l-.12.11a1.17,1.17,0,0,1-1.42,0l-4.26-3.6-4.26,3.53a1.14,1.14,0,0,1-1.4,0,.73.73,0,0,1-.12-1.05l.12-.12Z" transform="translate(-306.67 -384)"/><path class="cls-2" d="M328.23,402.25a1.14,1.14,0,0,1,1.4,0l5,4.13a.74.74,0,0,1,.12,1.05l-.12.12a1.2,1.2,0,0,1-1.42,0l-4.26-3.61-4.26,3.53a1.14,1.14,0,0,1-1.4,0,.73.73,0,0,1-.12-1.05l.12-.12Z" transform="translate(-306.67 -384)"/></svg>