<svg id="Layer_1" data-name="Layer 1" xmlns="http://www.w3.org/2000/svg" viewBox="0 0 22 22"><defs><style>.cls-1{fill:none;stroke:#f5b700;stroke-linecap:round;stroke-linejoin:round;stroke-width:2px;}</style></defs><path class="cls-1" d="M392,376.49a1,1,0,0,1,1-1.05h7a1,1,0,0,1,1,1.05v16.84h-9Z" transform="translate(-389 -372.33)"/><path class="cls-1" d="M401,383.33h5v7.9a2.05,2.05,0,0,0,2,2.1h0a2.05,2.05,0,0,0,2-2.1V380.7m-4.5-7.37,3,2.81m0,0,1.5,1.4v3.16m-1.5-4.56v4.56H410" transform="translate(-389 -372.33)"/><path class="cls-1" d="M403,393.33H390" transform="translate(-389 -372.33)"/><path class="cls-1" d="M398,379.65h-3" transform="translate(-389 -372.33)"/></svg>