<svg id="Layer_1" data-name="Layer 1" xmlns="http://www.w3.org/2000/svg" viewBox="0 0 20 25"><defs><style>.cls-1{fill:#f5b700;}</style></defs><path class="cls-1" d="M408.57,411.25v1.25a1.35,1.35,0,0,0,1.43-1.25Zm-17.14,0H390a1.35,1.35,0,0,0,1.43,1.25Zm16.36-22.36-.65,1.11Zm.63.54-1.28.57Zm-16.21-.54.65,1.11Zm-.63.54,1.28.57Zm4.13,3.07a1.26,1.26,0,1,0,0,2.5Zm1.43,2.5a1.26,1.26,0,1,0,0-2.5Zm-1.43,1.25a1.26,1.26,0,1,0,0,2.5Zm1.43,2.5a1.26,1.26,0,1,0,0-2.5Zm5.72-2.5a1.26,1.26,0,1,0,0,2.5Zm1.43,2.5a1.26,1.26,0,1,0,0-2.5ZM402.86,400a1.26,1.26,0,1,0,0,2.5Zm1.43,2.5a1.26,1.26,0,1,0,0-2.5Zm-8.58-2.5a1.26,1.26,0,1,0,0,2.5Zm1.43,2.5a1.26,1.26,0,1,0,0-2.5Zm5.72-10a1.26,1.26,0,1,0,0,2.5Zm1.43,2.5a1.26,1.26,0,1,0,0-2.5Zm-10.58-5h12.58v-2.5H393.71Zm13.43.75v20.5H410v-20.5ZM408.57,410H391.43v2.5h17.14Zm-15.71,1.25v-20.5H390v20.5ZM406.29,390h.82c.15,0,.11,0,0,0l1.3-2.23a3.2,3.2,0,0,0-1.1-.25c-.31,0-.68,0-1,0Zm3.71.75c0-.33,0-.65,0-.92a2.32,2.32,0,0,0-.29-1L407.14,390c0-.07,0-.1,0,0s0,.35,0,.72Zm-2.86-.75,2.55-1.14a2.73,2.73,0,0,0-1.25-1.09Zm-13.43-2.5c-.37,0-.74,0-1,0a3.2,3.2,0,0,0-1.1.25l1.3,2.23c-.09,0-.12,0,0,0h.82Zm-.85,3.25c0-.37,0-.57,0-.72s0-.1,0,0l-2.55-1.14a2.32,2.32,0,0,0-.29,1c0,.27,0,.59,0,.92Zm-1.3-3a2.73,2.73,0,0,0-1.25,1.09l2.55,1.14Zm4.15,7.23h1.43v-2.5h-1.43Zm0,3.75h1.43v-2.5h-1.43Zm7.15,0h1.43v-2.5h-1.43Zm0,3.75h1.43V400h-1.43Zm-7.15,0h1.43V400h-1.43Zm7.15-7.5h1.43v-2.5h-1.43Zm-1.43,12.5v3.75h2.86V407.5Zm-2.86,3.75V407.5h-2.86v3.75Zm1.43-5a1.35,1.35,0,0,1,1.43,1.25h2.86a4,4,0,0,0-4.29-3.75Zm0-2.5a4,4,0,0,0-4.29,3.75h2.86a1.35,1.35,0,0,1,1.43-1.25Z" transform="translate(-390 -387.5)"/></svg>