<svg id="Layer_1" data-name="Layer 1" xmlns="http://www.w3.org/2000/svg" viewBox="0 0 30 27"><defs><style>.cls-1{fill:#f59300;}</style></defs><path class="cls-1" d="M385.18,412.23h0a1.89,1.89,0,0,0,1.89,1.88h1.28a1.63,1.63,0,0,0,1.24-.57l.07-.09h.91a1.63,1.63,0,0,0,1.61-1.89,1.66,1.66,0,0,0-1.46-1.36v-1.27l3.49-4.37,6.74.88v6.14a1.88,1.88,0,0,0,1.89,1.87h.44a1.9,1.9,0,0,0,1.43.66H406a1.64,1.64,0,0,0,1.61-1.9,1.64,1.64,0,0,0-1.46-1.35v-5.55a5.69,5.69,0,0,0,3-3.38s2-6.35,2-6.35a4.38,4.38,0,0,0,4-4.36.6.6,0,0,0-.61-.6h-2.84l-1.88-1.52a1.91,1.91,0,0,0-.2-.7,2.23,2.23,0,0,0-1.89-1.29.54.54,0,0,0-.48.23,1.89,1.89,0,0,0-.17.28,2.3,2.3,0,0,0-.9-.19.59.59,0,0,0-.51.28,2.33,2.33,0,0,0-.08,2.35l.11.17-3.49,4.34-13.18,2.11a.59.59,0,0,1-.61-.26,10.33,10.33,0,0,1-1.55-4.82.62.62,0,0,0-.58-.61.61.61,0,0,0-.64.54c0,.18-.41,4.26.53,6.65a3.32,3.32,0,0,1,.23,1.41c0,.07,0,5.63,0,5.63l-1.2,2.84a.59.59,0,0,0-.05.23s0,3.91,0,3.94Z" transform="translate(-385.17 -387.11)"/></svg>