<svg id="Layer_1" data-name="Layer 1" xmlns="http://www.w3.org/2000/svg" viewBox="0 0 29 23"><defs><style>.cls-1{fill:none;stroke:#f59300;stroke-linecap:round;stroke-linejoin:round;stroke-width:3px;}</style></defs><path class="cls-1" d="M387,394.67l3.93,3a1.53,1.53,0,0,0,.93.31h16.28a1.53,1.53,0,0,0,.93-.31l3.93-3m-20.94,8h0m15.87,0h0M394.45,390h11.1a2.93,2.93,0,0,1,2.5,1.34l4.19,6.76a5,5,0,0,1,.76,2.65v7.92a1.39,1.39,0,0,1-1.44,1.33h-1.45a1.39,1.39,0,0,1-1.44-1.33v-1.34H391.33v1.34a1.39,1.39,0,0,1-1.44,1.33h-1.45a1.39,1.39,0,0,1-1.44-1.33v-7.92a5,5,0,0,1,.76-2.65l4.19-6.76A2.93,2.93,0,0,1,394.45,390Zm-1.67,12.67a.73.73,0,1,1-.72-.67A.7.7,0,0,1,392.78,402.67Zm15.89,0a.73.73,0,1,1-.73-.67A.7.7,0,0,1,408.67,402.67Z" transform="translate(-385.5 -388.5)"/></svg>