<svg id="Layer_1" data-name="Layer 1" xmlns="http://www.w3.org/2000/svg" viewBox="0 0 800 800"><defs><style>.cls-1{fill:#f59300;}.cls-2{fill:none;}</style></defs><path class="cls-1" d="M409.22,403.1a2.93,2.93,0,0,0-1.72.43l-13,8.3a3.54,3.54,0,0,0-1.1,4.54h0l2.25,4.3a2.85,2.85,0,0,0,4.09,1.23h0l2.7-1.66a3.92,3.92,0,0,0,1.74,1.66v2.87a3.18,3.18,0,0,0,3,3.32H415v-3.32h-7.79v-2.87a4.31,4.31,0,0,0,2-5.42A4.69,4.69,0,0,0,409,416l3.79-2.42a3.52,3.52,0,0,0,1.13-4.53l0,0-2.25-4.3a3,3,0,0,0-2.38-1.66m-17.94,13.66L385,417.92l1.12,2.16,3,5.74,1.13,2.16,4.08-5.48Z" transform="translate(0 0)"/><rect class="cls-2" width="800" height="800"/></svg>