<svg id="Layer_1" data-name="Layer 1" xmlns="http://www.w3.org/2000/svg" viewBox="0 0 22 22"><defs><style>.cls-1,.cls-2{fill:none;stroke:#6e757b;stroke-miterlimit:133.33;stroke-width:2px;}.cls-2{stroke-linecap:round;}</style></defs><ellipse class="cls-1" cx="11" cy="11" rx="3.18" ry="3"/><path class="cls-2" d="M391.15,398.64a1.53,1.53,0,0,1,0,2.72,2.3,2.3,0,0,0-.71.56,1.85,1.85,0,0,0-.42,1.47,4.77,4.77,0,0,0,.79,1.61,4.91,4.91,0,0,0,1.08,1.45,2.18,2.18,0,0,0,1.57.4,2.7,2.7,0,0,0,.87-.31,1.8,1.8,0,0,1,1.66,0,1.62,1.62,0,0,1,.84,1.35,2.27,2.27,0,0,0,.15.87,2.07,2.07,0,0,0,1.15,1.08,11.73,11.73,0,0,0,3.74,0,2.1,2.1,0,0,0,1.15-1.08,2.27,2.27,0,0,0,.15-.87,1.6,1.6,0,0,1,.84-1.35,1.8,1.8,0,0,1,1.66,0,2.62,2.62,0,0,0,.87.31,2.19,2.19,0,0,0,1.57-.4,4.93,4.93,0,0,0,1.07-1.45c.22-.36.39-.64.52-.87m-.86-2.77a1.54,1.54,0,0,1,0-2.72,2.5,2.5,0,0,0,.72-.56,1.93,1.93,0,0,0,.42-1.47,4.86,4.86,0,0,0-.8-1.61,4.93,4.93,0,0,0-1.07-1.45,2.19,2.19,0,0,0-1.57-.4,2.62,2.62,0,0,0-.87.31,1.8,1.8,0,0,1-1.66,0,1.6,1.6,0,0,1-.84-1.35,2.27,2.27,0,0,0-.15-.87,2.1,2.1,0,0,0-1.15-1.08,11.73,11.73,0,0,0-3.74,0,2.07,2.07,0,0,0-1.15,1.08,2.27,2.27,0,0,0-.15.87,1.62,1.62,0,0,1-.84,1.35,1.8,1.8,0,0,1-1.66,0,2.7,2.7,0,0,0-.87-.31,2.18,2.18,0,0,0-1.57.4,4.91,4.91,0,0,0-1.08,1.45c-.22.36-.39.64-.52.87" transform="translate(-389 -389)"/></svg>