<svg id="Layer_1" data-name="Layer 1" xmlns="http://www.w3.org/2000/svg" viewBox="0 0 17 17"><defs><style>.cls-1{fill:none;stroke:#0267c1;stroke-linecap:round;stroke-linejoin:round;stroke-width:2px;}</style></defs><path class="cls-1" d="M395.83,392.5V395m8.34-2.5V395m-8.25,11.67a4.16,4.16,0,0,1,8.16,0m-8.91.83h9.66a4.19,4.19,0,0,0,1.76-.18,1.71,1.71,0,0,0,.73-.73,4.19,4.19,0,0,0,.18-1.76v-8a4.13,4.13,0,0,0-.18-1.75,1.66,1.66,0,0,0-.73-.73,4.19,4.19,0,0,0-1.76-.18h-9.66a4.19,4.19,0,0,0-1.76.18,1.66,1.66,0,0,0-.73.73,4.13,4.13,0,0,0-.18,1.75v8a4.19,4.19,0,0,0,.18,1.76,1.71,1.71,0,0,0,.73.73A4.19,4.19,0,0,0,395.17,407.5Zm6.5-8.33A1.67,1.67,0,1,1,400,397.5,1.66,1.66,0,0,1,401.67,399.17Z" transform="translate(-391.5 -391.5)"/></svg>