<svg id="svg5" xmlns="http://www.w3.org/2000/svg" viewBox="0 0 25 25"><defs><style>.cls-1{fill:#f5b700;fill-rule:evenodd;}</style></defs><g id="layer1"><path id="path453523" class="cls-1" d="M397.77,401.22a.9.9,0,0,0-.63,1.53l4.46,4.46a.89.89,0,0,0,1.26-1.26l-4.46-4.47A.94.94,0,0,0,397.77,401.22Z" transform="translate(-387.5 -387.83)"/><path id="path453515" class="cls-1" d="M397.77,396.31a.9.9,0,0,0-.63,1.53l4.46,4.46a.89.89,0,0,0,1.26-1.26l-4.46-4.47A.94.94,0,0,0,397.77,396.31Z" transform="translate(-387.5 -387.83)"/><path id="path453497" class="cls-1" d="M396.5,387.83a.89.89,0,0,0-.43.08l-8,3.57a.89.89,0,0,0-.52.94l.89,6.25a.89.89,0,0,0,1,.76.92.92,0,0,0,.28-.09L392,398.2v13.74a.89.89,0,0,0,.9.89h14.28a.89.89,0,0,0,.9-.89V398.2l2.27,1.14a.89.89,0,0,0,1.2-.4.78.78,0,0,0,.09-.27l.89-6.25a.89.89,0,0,0-.52-.94l-8-3.57a.88.88,0,0,0-1.17.45.76.76,0,0,0-.08.36,2.68,2.68,0,1,1-5.36,0A.9.9,0,0,0,396.5,387.83Zm-.71,2.15a4.37,4.37,0,0,0,8.42,0l6.42,2.86-.63,4.35L407.54,396a.89.89,0,0,0-1.29.8V411h-12.5V396.76a.89.89,0,0,0-.89-.89.9.9,0,0,0-.4.09L390,397.19l-.63-4.35Z" transform="translate(-387.5 -387.83)"/></g></svg>