<svg id="Icons" xmlns="http://www.w3.org/2000/svg" viewBox="0 0 30 20"><defs><style>.cls-1{fill:#f5b700;}</style></defs><path class="cls-1" d="M426.25,434.17c0-.45-.39-.74-1-.74h-4.83v-1.49c0-1.25-1.25-2.22-2.89-2.22-.58,0-1,.3-1,.74s.39.74,1,.74,1,.3,1,.74v1.49h-4L412.17,429h1.54c.58,0,1-.29,1-.74s-.38-.74-1-.74H402.13a.74.74,0,0,0-.38.07s-.1,0-.1.08-.09.07-.19.07l-.1.08c0,.07-.09.07-.09.14s0,.08-.1.08v.07l-1.64,6.15a9.68,9.68,0,0,0-3,1.63.61.61,0,0,0,0,1,1.16,1.16,0,0,0,1.35,0,10.23,10.23,0,0,1,6.17-2c4.83,0,8.69,3,8.69,6.66v1.12c0,.07.09.07.09.14l.1.08.19.15.1.07c.09,0,.19.07.29.07h3.18c-.1.08-.1.37-.1.6,0,2.07,2.13,3.7,4.83,3.7s4.82-1.63,4.82-3.7a3.7,3.7,0,0,0-.19-1,1,1,0,0,0,.19-.45ZM421.43,446c-1.64,0-2.9-1-2.9-2.22s1.26-2.23,2.9-2.23,2.89,1,2.89,2.23S423.07,446,421.43,446Z" transform="translate(-396.25 -427.5)"/><path class="cls-1" d="M404.06,435.65c-4.24,0-7.71,2.66-7.71,5.92s3.47,5.93,7.71,5.93,7.72-2.67,7.72-5.93S408.31,435.65,404.06,435.65Zm0,8.15c-1.64,0-2.89-1-2.89-2.23s1.25-2.22,2.89-2.22,2.9,1,2.9,2.22S405.7,443.8,404.06,443.8Z" transform="translate(-396.25 -427.5)"/></svg>