<svg id="Layer_1" data-name="Layer 1" xmlns="http://www.w3.org/2000/svg" viewBox="0 0 25 25"><defs><style>.cls-1{fill:#f5b700;}</style></defs><path class="cls-1" d="M387.8,409a.87.87,0,0,1,.18-1.19l0,0,5.35-4.19c-.45-.64.07-.86.07-.86l-.43-1.16a1.53,1.53,0,0,1,.37-1.57l4.59-3.41a1.37,1.37,0,0,1,1.93.33l0,0,.92-.52a.77.77,0,0,1,.26-1h0l4.92-3.92v-1.8c.05-1,.57-.58.57-.58l1.64,1.63,3.8-3.26c.25-.23.48.16.48.16s.21.24.07.39-3.41,3.15-3.41,3.15l.09.8-.29.33-.52-.53-.89.86a1.37,1.37,0,0,1-.32,1.25L403.4,398c-.7.59-1,.16-1,.16l-.78.85c-.33.49,1.12,1.73,1.12,1.73l-.13.36a14.17,14.17,0,0,0,3.91,2.83l-1.73,2.66a10.6,10.6,0,0,1-3.58-2.49l-1.47.83c-1.31,1-1.07,1.62-1.07,1.62l.24,1.79c.89.41.16.8.16.8l-1.37.63c-.9.57-.88-.15-.88-.15l-.11-3.52c-.56-1.26-1.38-.64-1.38-.64a16.9,16.9,0,0,0-2.6,2.94l-.28,3.08c-.52,1.51-1.42.8-1.42.8L388.74,410Z" transform="translate(-387.64 -387.4)"/></svg>