<svg id="Layer_1" data-name="Layer 1" xmlns="http://www.w3.org/2000/svg" viewBox="0 0 25 25"><defs><style>.cls-1{fill:#f5b700;}</style></defs><path class="cls-1" d="M395.31,387.5a.82.82,0,0,0-.78.78v1.56h.78v1.57h-3.12a3.58,3.58,0,0,0-3.91,3.9v14.07a3.57,3.57,0,0,1-.78,1.56v1.56h25v-1.56a3.57,3.57,0,0,1-.78-1.56V395.31a3.58,3.58,0,0,0-3.91-3.9h-3.12v-1.57h.78v-1.56a.82.82,0,0,0-.78-.78Zm3.75,2.34h1.72c.78,0,2.34,0,2.34,1.57h-6.24C396.88,389.94,398.25,389.85,399.06,389.84ZM393,394.53H407a1.42,1.42,0,0,1,1.56,1.56v12.5a.82.82,0,0,1-.78.79H392.19a.82.82,0,0,1-.78-.79v-12.5A1.42,1.42,0,0,1,393,394.53Zm1.56,1.56a4.14,4.14,0,0,0-1.56,3.13v5.47h3.12v-5.47A4.14,4.14,0,0,0,394.53,396.09Zm5.47,0a4.14,4.14,0,0,0-1.56,3.13v5.47h3.12v-5.47A4.14,4.14,0,0,0,400,396.09Zm5.47,0a4.14,4.14,0,0,0-1.56,3.13v5.47H407v-5.47A4.14,4.14,0,0,0,405.47,396.09ZM393,405.47V407h3.12v-1.56Zm5.47,0V407h3.12v-1.56Zm5.47,0V407H407v-1.56Z" transform="translate(-387.5 -387.5)"/></svg>